<?xml version="1.0" encoding="utf-8"?>
<!-- Generator: Adobe Illustrator 27.8.1, SVG Export Plug-In . SVG Version: 6.00 Build 0)  -->
<svg version="1.1" id="レイヤー_1" xmlns="http://www.w3.org/2000/svg" xmlns:xlink="http://www.w3.org/1999/xlink" x="0px"
	 y="0px" viewBox="0 0 211.2 957.1" style="enable-background:new 0 0 211.2 957.1;" xml:space="preserve">
<style type="text/css">
	.st0{fill:#FFFFFF;}
</style>
<g>
	<path class="st0" d="M27.2,957.1v-34.6l117.4-26.4l-117.4-33v-29.2l117.4-33.3L27.2,774.4v-34.6l184,41.5v33.6L92.3,849L211.2,882
		v33.3L27.2,957.1z"/>
	<path class="st0" d="M193.2,615.5c11.8,12.1,17.9,24.9,17.9,42c0,34.6-29.7,64.8-71.5,64.8s-71.8-28.7-71.8-64.1
		c0-16.4,6.2-30.5,18.5-42.8H71.5v-34.1h136.1v34.1L193.2,615.5L193.2,615.5z M139.4,688c23.3,0,40.5-15.4,40.5-36.7
		c0-21.3-15.9-37.4-40.8-37.4s-40,15.9-40,37.4S117.1,688,139.4,688L139.4,688z"/>
	<path class="st0" d="M181.2,235c20.8,14.6,30,33.8,30,62.5c0,43.3-31.8,71.2-71.8,71.2c-37.2,0-71.5-26.9-71.5-70.7
		s30.8-72.3,73.8-72.3c3.1,0,4.6,0.3,7.7,0.3v109.7c20.2-3.3,31.5-18.7,31.5-38.2c0-14.6-4.1-24.3-13.3-33.8L181.2,235z
		 M122.5,260.1c-15.9,4.6-25.6,19.2-25.6,37.4c0,16.9,8.5,30,25.6,36.7V260.1L122.5,260.1z"/>
	<path class="st0" d="M148.7,171.4c-11,21.8-24.3,32.8-41.5,32.8c-21.3,0-39.2-17.9-39.2-44.1c0-17.7,7.9-33.8,22.5-44.8l21.3,21
		c-7.7,7.7-12.6,15.4-12.6,23.6c0,6.9,2.8,12.3,8.2,12.3s7.4-4.9,11.3-12.3l6.4-12.5c11.5-22.5,23.3-34.6,43.6-34.6
		c24.4,0,42.6,19.2,42.6,49c0,19.7-7.9,35.9-23.3,47.7l-23.1-21c9.2-7.9,15.9-19.5,15.9-28.5c0-8.5-4.9-15.1-11-15.1
		s-10.2,5.6-15.1,15.1L148.7,171.4L148.7,171.4z"/>
	<path class="st0" d="M148.7,58.7c-11,21.8-24.3,32.8-41.5,32.8c-21.3,0-39.2-17.9-39.2-44.1c0-17.7,7.9-33.8,22.5-44.8l21.3,21
		c-7.7,7.7-12.6,15.4-12.6,23.6c0,6.9,2.8,12.3,8.2,12.3s7.4-4.9,11.3-12.3l6.4-12.5C136.6,12,148.4,0,168.6,0
		c24.4,0,42.6,19.2,42.6,49c0,19.7-7.9,35.9-23.3,47.7l-23.1-21c9.2-7.9,15.9-19.5,15.9-28.5c0-8.5-4.9-15.1-11-15.1
		s-10.2,5.6-15.1,15.1L148.7,58.7L148.7,58.7z"/>
	<rect x="108.9" y="406.6" class="st0" width="65.1" height="25.5"/>
	<rect x="204.8" y="406.6" class="st0" width="6.4" height="25.5"/>
	<rect x="182.7" y="406.6" class="st0" width="13.3" height="25.5"/>
	<rect x="203.6" y="456.5" class="st0" width="7.6" height="25.5"/>
	<rect x="68.4" y="456.5" class="st0" width="127.6" height="25.5"/>
	<rect y="506" class="st0" width="211.2" height="25.5"/>
</g>
</svg>
