<?xml version="1.0" encoding="UTF-8"?><svg xmlns="http://www.w3.org/2000/svg" viewBox="0 0 957.13 211.19"><defs><style>fill:#000;</style></defs><g><path d="m0,27.19h34.6l26.4,117.37L94.05,27.19h29.21l33.32,117.37,26.14-117.37h34.6l-41.52,184.01h-33.57l-34.08-118.91-33.06,118.91h-33.32L0,27.19Z"/><path d="m341.6,193.25c-12.05,11.79-24.86,17.94-42.03,17.94-34.6,0-64.84-29.73-64.84-71.5s28.7-71.76,64.07-71.76c16.4,0,30.5,6.15,42.8,18.45v-14.86h34.08v136.08h-34.08v-14.35Zm-72.53-53.82c0,23.32,15.38,40.49,36.65,40.49s37.42-15.89,37.42-40.75-15.89-39.98-37.42-39.98-36.65,17.94-36.65,40.24Z"/><path d="m722.14,181.21c-14.61,20.76-33.83,29.99-62.53,29.99-43.31,0-71.24-31.78-71.24-71.76,0-37.16,26.91-71.5,70.74-71.5s72.27,30.75,72.27,73.81c0,3.08-.26,4.61-.26,7.69h-109.69c3.33,20.25,18.71,31.52,38.18,31.52,14.61,0,24.35-4.1,33.83-13.33l28.7,13.58Zm-25.11-58.69c-4.61-15.89-19.22-25.63-37.42-25.63-16.91,0-29.98,8.46-36.65,25.63h74.06Z"/><path d="m785.69,148.66c-21.78-11.02-32.8-24.35-32.8-41.52,0-21.27,17.94-39.21,44.08-39.21,17.68,0,33.83,7.95,44.85,22.55l-21.02,21.27c-7.69-7.69-15.38-12.56-23.58-12.56-6.92,0-12.3,2.82-12.3,8.2s4.87,7.43,12.3,11.28l12.55,6.41c22.55,11.53,34.6,23.32,34.6,43.56,0,24.35-19.22,42.55-48.95,42.55-19.73,0-35.88-7.95-47.67-23.32l21.02-23.06c7.94,9.23,19.48,15.89,28.45,15.89,8.46,0,15.12-4.87,15.12-11.02s-5.64-10.25-15.12-15.12l-11.54-5.89Z"/><path d="m898.44,148.66c-21.78-11.02-32.8-24.35-32.8-41.52,0-21.27,17.94-39.21,44.08-39.21,17.68,0,33.83,7.95,44.85,22.55l-21.02,21.27c-7.69-7.69-15.38-12.56-23.58-12.56-6.92,0-12.3,2.82-12.3,8.2s4.87,7.43,12.3,11.28l12.55,6.41c22.55,11.53,34.6,23.32,34.6,43.56,0,24.35-19.22,42.55-48.95,42.55-19.73,0-35.88-7.95-47.67-23.32l21.02-23.06c7.94,9.23,19.48,15.89,28.45,15.89,8.46,0,15.12-4.87,15.12-11.02s-5.64-10.25-15.12-15.12l-11.54-5.89Z"/><rect x="525" y="108.87" width="25.5" height="65.05"/><rect x="525" y="204.79" width="25.5" height="6.41"/><rect x="525" y="182.72" width="25.5" height="13.26"/><rect x="475.11" y="203.58" width="25.5" height="7.62"/><rect x="475.11" y="68.43" width="25.5" height="127.56"/><rect x="425.57" width="25.5" height="211.19"/></g></svg>
